# xmcd
#
# Track frame offsets:
#	150
#	20055
#	32126
#	44246
#	63528
#	76543
#	93917
#	110050
#	126064
#	137431
#	145324
#	156335
#	165710
#	186746
#	198692
#
# Disc length: 2874 seconds
#
# Revision: 0
# Processed by: cddbd v1.5.2PL0 Copyright (c) Steve Scherf et al.
# Submitted via: EZCDAudioConverter 2.4.0.1
#
DISCID=df0b380f
DTITLE=Garou - Xmas Blues
DYEAR=2014
DGENRE=Noël
TTITLE0=Xmas blues medley
TTITLE1=Le bonhomme de neige
TTITLE2=Blue Christmas
TTITLE3=White Christmas
TTITLE4=Petit garçon
TTITLE5=Mon beau sapin
TTITLE6=Petit Papa Noël
TTITLE7=Happy Xmas
TTITLE8=Sleigh ride - Promenade en traîneau
TTITLE9=Santa Claus is coming to town
TTITLE10=Let it snow - C'est l'hiver
TTITLE11=Jingle bell rock
TTITLE12=The twelve days of Christmas
TTITLE13=Joyeux Noël
TTITLE14=Douce nuit - Silent night
EXTD=
EXTT0=
EXTT1=
EXTT2=
EXTT3=
EXTT4=
EXTT5=
EXTT6=
EXTT7=
EXTT8=
EXTT9=
EXTT10=
EXTT11=
EXTT12=
EXTT13=
EXTT14=
PLAYORDER=
